<?xml version="1.0" encoding="UTF-8" standalone="no"?>
<!DOCTYPE svg PUBLIC "-//W3C//DTD SVG 1.1//EN"
 "http://www.w3.org/Graphics/SVG/1.1/DTD/svg11.dtd">
<!-- Generated by graphviz version 2.38.0 (20140413.2041)
 -->
<!-- Title: G Pages: 1 -->
<svg width="550pt" height="312pt"
 viewBox="0.00 0.00 550.00 312.00" xmlns="http://www.w3.org/2000/svg" xmlns:xlink="http://www.w3.org/1999/xlink">
<g id="graph0" class="graph" transform="scale(1 1) rotate(0) translate(4 308)">
<title>G</title>
<polygon fill="white" stroke="none" points="-4,4 -4,-308 546,-308 546,4 -4,4"/>
<g id="clust1" class="cluster"><title>cluster_Global</title>
<path fill="none" stroke="gray" d="M20,-8C20,-8 522,-8 522,-8 528,-8 534,-14 534,-20 534,-20 534,-284 534,-284 534,-290 528,-296 522,-296 522,-296 20,-296 20,-296 14,-296 8,-290 8,-284 8,-284 8,-20 8,-20 8,-14 14,-8 20,-8"/>
<text text-anchor="middle" x="271" y="-283.2" font-family="Times,serif" font-size="11.00" fill="gray">Global</text>
</g>
<!-- \\BaseTransport -->
<g id="node1" class="node"><title>\\BaseTransport</title>
<polygon fill="none" stroke="black" points="325,-187 223,-187 223,-151 325,-151 325,-187"/>
<text text-anchor="start" x="240.5" y="-172.2" font-family="Courier,monospace" font-size="11.00">«abstract»</text>
<text text-anchor="start" x="231" y="-160.2" font-family="Courier,monospace" font-size="11.00">BaseTransport</text>
</g>
<!-- \\TransportInterface -->
<g id="node8" class="node"><title>\\TransportInterface</title>
<polygon fill="none" stroke="black" points="151,-187 16,-187 16,-151 151,-151 151,-187"/>
<text text-anchor="middle" x="83.5" y="-166.2" font-family="Courier,monospace" font-size="11.00">TransportInterface</text>
</g>
<!-- \\BaseTransport&#45;&gt;\\TransportInterface -->
<g id="edge1" class="edge"><title>\\BaseTransport&#45;&gt;\\TransportInterface</title>
<path fill="none" stroke="black" stroke-dasharray="1,5" d="M222.98,-169C204.046,-169 182.033,-169 161.204,-169"/>
<polygon fill="none" stroke="black" points="161.093,-165.5 151.093,-169 161.093,-172.5 161.093,-165.5"/>
</g>
<!-- \\MessageProxy -->
<g id="node2" class="node"><title>\\MessageProxy</title>
<polygon fill="none" stroke="black" points="509.5,-268 413.5,-268 413.5,-232 509.5,-232 509.5,-268"/>
<text text-anchor="middle" x="461.5" y="-247.2" font-family="Courier,monospace" font-size="11.00">MessageProxy</text>
</g>
<!-- \\BaseStorage -->
<g id="node3" class="node"><title>\\BaseStorage</title>
<polygon fill="none" stroke="black" points="318.5,-79 229.5,-79 229.5,-43 318.5,-43 318.5,-79"/>
<text text-anchor="start" x="240.5" y="-64.2" font-family="Courier,monospace" font-size="11.00">«abstract»</text>
<text text-anchor="start" x="237.5" y="-52.2" font-family="Courier,monospace" font-size="11.00">BaseStorage</text>
</g>
<!-- \\StorageInterface -->
<g id="node9" class="node"><title>\\StorageInterface</title>
<polygon fill="none" stroke="black" points="144.5,-79 22.5,-79 22.5,-43 144.5,-43 144.5,-79"/>
<text text-anchor="middle" x="83.5" y="-58.2" font-family="Courier,monospace" font-size="11.00">StorageInterface</text>
</g>
<!-- \\BaseStorage&#45;&gt;\\StorageInterface -->
<g id="edge2" class="edge"><title>\\BaseStorage&#45;&gt;\\StorageInterface</title>
<path fill="none" stroke="black" stroke-dasharray="1,5" d="M229.281,-61C207.199,-61 179.865,-61 154.915,-61"/>
<polygon fill="none" stroke="black" points="154.758,-57.5001 144.758,-61 154.758,-64.5001 154.758,-57.5001"/>
</g>
<!-- \\PeclHttpTransport -->
<g id="node4" class="node"><title>\\PeclHttpTransport</title>
<polygon fill="none" stroke="black" points="526,-214 397,-214 397,-178 526,-178 526,-214"/>
<text text-anchor="middle" x="461.5" y="-193.2" font-family="Courier,monospace" font-size="11.00">PeclHttpTransport</text>
</g>
<!-- \\PeclHttpTransport&#45;&gt;\\BaseTransport -->
<g id="edge3" class="edge"><title>\\PeclHttpTransport&#45;&gt;\\BaseTransport</title>
<path fill="none" stroke="black" d="M396.921,-186.746C376.915,-183.834 354.893,-180.629 335.135,-177.753"/>
<polygon fill="none" stroke="black" points="335.431,-174.259 325.031,-176.282 334.423,-181.186 335.431,-174.259"/>
</g>
<!-- \\SQLite3Storage -->
<g id="node5" class="node"><title>\\SQLite3Storage</title>
<polygon fill="none" stroke="black" points="516,-106 407,-106 407,-70 516,-70 516,-106"/>
<text text-anchor="middle" x="461.5" y="-85.2" font-family="Courier,monospace" font-size="11.00">SQLite3Storage</text>
</g>
<!-- \\SQLite3Storage&#45;&gt;\\BaseStorage -->
<g id="edge4" class="edge"><title>\\SQLite3Storage&#45;&gt;\\BaseStorage</title>
<path fill="none" stroke="black" d="M406.846,-80.1905C382.315,-76.62 353.319,-72.3996 328.774,-68.827"/>
<polygon fill="none" stroke="black" points="328.954,-65.3163 318.554,-67.3394 327.945,-72.2433 328.954,-65.3163"/>
</g>
<!-- \\CurlTransport -->
<g id="node6" class="node"><title>\\CurlTransport</title>
<polygon fill="none" stroke="black" points="512.5,-160 410.5,-160 410.5,-124 512.5,-124 512.5,-160"/>
<text text-anchor="middle" x="461.5" y="-139.2" font-family="Courier,monospace" font-size="11.00">CurlTransport</text>
</g>
<!-- \\CurlTransport&#45;&gt;\\BaseTransport -->
<g id="edge5" class="edge"><title>\\CurlTransport&#45;&gt;\\BaseTransport</title>
<path fill="none" stroke="black" d="M410.301,-149.307C387.205,-152.668 359.615,-156.684 335.392,-160.21"/>
<polygon fill="none" stroke="black" points="334.631,-156.784 325.239,-161.688 335.639,-163.711 334.631,-156.784"/>
</g>
<!-- \\MysqlStorage -->
<g id="node7" class="node"><title>\\MysqlStorage</title>
<polygon fill="none" stroke="black" points="509.5,-52 413.5,-52 413.5,-16 509.5,-16 509.5,-52"/>
<text text-anchor="middle" x="461.5" y="-31.2" font-family="Courier,monospace" font-size="11.00">MysqlStorage</text>
</g>
<!-- \\MysqlStorage&#45;&gt;\\BaseStorage -->
<g id="edge6" class="edge"><title>\\MysqlStorage&#45;&gt;\\BaseStorage</title>
<path fill="none" stroke="black" d="M413.211,-40.8831C387.416,-44.6375 355.39,-49.2991 328.663,-53.1892"/>
<polygon fill="none" stroke="black" points="328.095,-49.735 318.703,-54.6389 329.103,-56.662 328.095,-49.735"/>
</g>
</g>
</svg>
